HIERARCHY
ROOT Hips
{
	OFFSET 0.00000 0.00000 0.00000
	CHANNELS 6 Xposition Yposition Zposition Zrotation Yrotation Xrotation 
	JOINT LHipJoint
	{
		OFFSET 0 0 0
		CHANNELS 3 Zrotation Yrotation Xrotation
		JOINT LeftUpLeg
		{
			OFFSET 1.26600 -1.82114 0.91038
			CHANNELS 3 Zrotation Yrotation Xrotation
			JOINT LeftLeg
			{
				OFFSET 2.50076 -6.87080 0.00000
				CHANNELS 3 Zrotation Yrotation Xrotation
				JOINT LeftFoot
				{
					OFFSET 2.57364 -7.07102 0.00000
					CHANNELS 3 Zrotation Yrotation Xrotation
					JOINT LeftToeBase
					{
						OFFSET 0.13572 -0.37290 1.97004
						CHANNELS 3 Zrotation Yrotation Xrotation
						End Site
						{
							OFFSET 0.00000 -0.00000 1.01383
						}
					}
				}
			}
		}
	}
	JOINT RHipJoint
	{
		OFFSET 0 0 0
		CHANNELS 3 Zrotation Yrotation Xrotation
		JOINT RightUpLeg
		{
			OFFSET -1.20803 -1.82114 0.91038
			CHANNELS 3 Zrotation Yrotation Xrotation
			JOINT RightLeg
			{
				OFFSET -2.54916 -7.00377 0.00000
				CHANNELS 3 Zrotation Yrotation Xrotation
				JOINT RightFoot
				{
					OFFSET -2.56374 -7.04382 0.00000
					CHANNELS 3 Zrotation Yrotation Xrotation
					JOINT RightToeBase
					{
						OFFSET -0.23520 -0.64621 2.09921
						CHANNELS 3 Zrotation Yrotation Xrotation
						End Site
						{
							OFFSET -0.00000 -0.00000 1.10065
						}
					}
				}
			}
		}
	}
	JOINT LowerBack
	{
		OFFSET 0 0 0
		CHANNELS 3 Zrotation Yrotation Xrotation
		JOINT Spine
		{
			OFFSET 0.05492 2.10797 -0.12074
			CHANNELS 3 Zrotation Yrotation Xrotation
			JOINT Spine1
			{
				OFFSET 0.04577 2.11592 -0.04483
				CHANNELS 3 Zrotation Yrotation Xrotation
				JOINT Neck
				{
					OFFSET 0 0 0
					CHANNELS 3 Zrotation Yrotation Xrotation
					JOINT Neck1
					{
						OFFSET -0.10759 1.80167 0.15770
						CHANNELS 3 Zrotation Yrotation Xrotation
						JOINT Head
						{
							OFFSET 0.09237 1.77509 -0.40848
							CHANNELS 3 Zrotation Yrotation Xrotation
							End Site
							{
								OFFSET 0.03805 1.84093 -0.15754
							}
						}
					}
				}
				JOINT LeftShoulder
				{
					OFFSET 0 0 0
					CHANNELS 3 Zrotation Yrotation Xrotation
					JOINT LeftArm
					{
						OFFSET 3.42372 1.09575 -0.28209
						CHANNELS 3 Zrotation Yrotation Xrotation
						JOINT LeftForeArm
						{
							OFFSET 4.95681 -0.00000 0.00000
							CHANNELS 3 Zrotation Yrotation Xrotation
							JOINT LeftHand
							{
								OFFSET 3.40915 -0.00000 0.00000
								CHANNELS 3 Zrotation Yrotation Xrotation
								JOINT LeftFingerBase
								{
									OFFSET 0 0 0
									CHANNELS 3 Zrotation Yrotation Xrotation
									JOINT LeftHandIndex1
									{
										OFFSET 0.61640 -0.00000 0.00000
										CHANNELS 3 Zrotation Yrotation Xrotation
										End Site
										{
											OFFSET 0.49696 -0.00000 0.00000
										}
									}
								}
								JOINT LThumb
								{
									OFFSET 0 0 0
									CHANNELS 3 Zrotation Yrotation Xrotation
									End Site
									{
										OFFSET 0.50455 -0.00000 0.50455
									}
								}
							}
						}
					}
				}
				JOINT RightShoulder
				{
					OFFSET 0 0 0
					CHANNELS 3 Zrotation Yrotation Xrotation
					JOINT RightArm
					{
						OFFSET -3.24731 1.15872 -0.32221
						CHANNELS 3 Zrotation Yrotation Xrotation
						JOINT RightForeArm
						{
							OFFSET -5.35200 -0.00000 0.00000
							CHANNELS 3 Zrotation Yrotation Xrotation
							JOINT RightHand
							{
								OFFSET -3.43721 -0.00000 -0.00000
								CHANNELS 3 Zrotation Yrotation Xrotation
								JOINT RightFingerBase
								{
									OFFSET 0 0 0
									CHANNELS 3 Zrotation Yrotation Xrotation
									JOINT RightHandIndex1
									{
										OFFSET -0.72009 -0.00000 0.00000
										CHANNELS 3 Zrotation Yrotation Xrotation
										End Site
										{
											OFFSET -0.58056 -0.00000 0.00000
										}
									}
								}
								JOINT RThumb
								{
									OFFSET 0 0 0
									CHANNELS 3 Zrotation Yrotation Xrotation
									End Site
									{
										OFFSET -0.58942 -0.00000 0.58942
									}
								}
							}
						}
					}
				}
			}
		}
	}
}
MOTION
Frames: 8
Frame Time: .0083333
-2.4425 20.7544 9.2133 -5.2223 12.4986 359.5820 0.0000 0.0000 0.0000 -14.3553 -5.2679 -8.4689 2.6053 10.0268 29.0637 1.2370 -19.5320 -22.5921 0.2711 -3.3493 -9.2528 0.0000 0.0000 0.0000 26.6480 -0.9511 -11.0651 -2.6174 -10.0482 29.1331 -0.9165 4.5568 -17.1361 -0.0364 -1.2311 3.3848 3.5059 0.6450 4.1818 3.1024 1.0219 1.9638 1.1755 0.5226 -0.3214 -6.8304 0.9707 -13.4148 -1.3676 4.5799 39.1700 1.4334 0.8039 16.1873 0.0000 0.0000 0.0000 -88.6973 4.9839 19.6885 15.3198 -24.5897 -3.3579 -0.0000 -0.0000 1.8804 15.5760 21.6952 5.8834 -7.1250 0.0000 -0.0000 -13.4427 51.9262 -2.3273 0.0000 0.0000 0.0000 86.8245 2.2157 22.6280 -15.5190 24.8641 -3.4412 0.0000 -0.0000 -8.6269 -19.4640 11.1547 -3.9112 7.1250 -0.0000 -0.0000 5.3723 -18.1978 3.4410
-2.4553 20.7492 9.2239 -4.9983 13.0856 359.6820 0.0000 0.0000 0.0000 -14.5527 -5.3514 -8.6544 2.6128 10.0402 29.1069 1.1902 -19.8055 -22.4096 0.2387 -3.1443 -8.6808 0.0000 0.0000 0.0000 26.3777 -1.7331 -11.5517 -2.6242 -10.0604 29.1725 -0.9028 4.9433 -16.9772 -0.0453 -1.3732 3.7763 3.3872 0.6738 4.2934 3.0777 1.0616 1.9786 1.2134 0.5417 -0.3702 -6.9891 1.0180 -13.5300 -1.2541 4.6946 39.2958 1.5353 0.8417 16.2703 -0.0000 0.0000 0.0000 -88.8546 4.9500 19.4563 15.2115 -24.4399 -3.3130 -0.0000 -0.0000 2.3728 14.9972 21.4450 5.5940 -7.1250 0.0000 -0.0000 -13.9025 51.5809 -2.2903 -0.0000 0.0000 0.0000 86.6938 2.1140 23.0976 -15.6439 25.0355 -3.4939 0.0000 -0.0000 -9.0016 -19.3992 10.9930 -3.8416 7.1250 -0.0000 -0.0000 5.4153 -18.3727 3.4478
-2.4702 20.7453 9.2312 -5.0449 13.5803 359.5820 0.0000 0.0000 0.0000 -14.4310 -5.3615 -8.7062 2.6235 10.0591 29.1684 1.1335 -20.1125 -22.1823 0.2199 -3.0189 -8.3313 0.0000 0.0000 0.0000 26.5245 -1.5308 -11.3238 -2.6173 -10.0482 29.1328 -0.9242 4.2229 -17.2412 -0.0442 -1.3566 3.7306 3.5321 0.7682 4.4396 3.0940 1.1927 2.1936 1.1434 0.6111 -0.2274 -7.1581 0.9506 -13.9940 -1.0160 4.6271 39.4708 1.6707 0.8106 16.4661 0.0000 -0.0000 0.0000 -88.8690 4.4542 19.2336 14.9560 -24.0848 -3.2080 -0.0000 -0.0000 2.9659 15.0351 20.5214 5.3792 -7.1250 0.0000 -0.0000 -13.4930 50.6736 -1.9166 0.0000 -0.0000 0.0000 86.6353 2.3640 23.4215 -15.6479 25.0409 -3.4956 0.0000 -0.0000 -9.2074 -19.4909 11.1101 -3.9017 7.1250 -0.0000 -0.0000 5.3526 -18.2425 3.4230
-2.4859 20.7454 9.2358 -5.3678 14.2295 359.5070 0.0000 0.0000 0.0000 -13.9586 -5.5795 -8.8502 2.6458 10.0984 29.2959 1.0223 -20.6461 -21.7173 0.2001 -2.8804 -7.9459 0.0000 0.0000 0.0000 26.9663 -1.3227 -11.0744 -2.5910 -10.0015 28.9815 -0.9448 3.4712 -17.5308 -0.0730 -1.7429 4.7956 3.9631 0.8091 4.5033 3.1572 1.2604 2.3865 0.9663 0.6518 -0.0553 -7.2453 0.8627 -14.4928 -0.9146 4.5570 39.5909 1.7314 0.7727 16.6524 0.0000 -0.0000 0.0000 -88.7934 3.8962 19.3157 14.7577 -23.8075 -3.1275 -0.0000 -0.0000 3.0081 15.6783 19.5699 5.3709 -7.1250 0.0000 -0.0000 -12.5181 49.8286 -1.5111 0.0000 -0.0000 0.0000 86.6498 2.6484 23.8672 -15.5672 24.9303 -3.4615 0.0000 -0.0000 -9.7355 -19.8683 11.6856 -4.1861 7.1250 -0.0000 -0.0000 5.0990 -17.6067 3.3311
-2.4981 20.7560 9.2441 -5.3477 15.0131 359.6380 0.0000 0.0000 0.0000 -13.8798 -5.9835 -9.1130 2.6839 10.1649 29.5123 0.9180 -21.1037 -21.2710 0.1836 -2.7597 -7.6105 0.0000 0.0000 0.0000 26.9612 -1.7677 -11.3090 -2.5505 -9.9291 28.7475 -0.9422 3.4039 -17.5162 -0.1212 -2.2441 6.1808 4.0785 0.8123 4.5335 3.1574 1.2713 2.3969 0.9012 0.6586 -0.0585 -7.2733 0.8533 -14.6241 -1.0870 4.6491 39.5399 1.6792 0.7869 16.6648 0.0000 0.0000 0.0000 -88.8422 3.8940 19.6047 14.9120 -24.0234 -3.1900 -0.0000 -0.0000 2.5837 14.9284 20.0518 5.2230 -7.1250 0.0000 -0.0000 -13.4140 50.1912 -1.7439 0.0000 0.0000 0.0000 86.5874 2.6070 24.3468 -15.5857 24.9557 -3.4693 0.0000 -0.0000 -10.2490 -20.2323 12.2740 -4.4801 7.1250 -0.0000 -0.0000 4.8600 -16.9551 3.2432
-2.5147 20.7628 9.2461 -5.6909 15.6848 359.7950 0.0000 0.0000 0.0000 -13.3899 -6.2291 -9.6464 2.7200 10.2273 29.7160 0.8704 -21.4632 -21.1436 0.2004 -2.8827 -7.9525 0.0000 0.0000 0.0000 27.4188 -1.9582 -11.6638 -2.5168 -9.8683 28.5513 -0.9537 3.0698 -17.6797 -0.1271 -2.2984 6.3310 4.5626 0.9079 4.5374 3.2374 1.4244 2.2977 0.7061 0.7367 -0.1498 -7.1470 0.8775 -14.5987 -1.3604 4.7762 39.5453 1.5600 0.8267 16.6751 -0.0000 0.0000 0.0000 -88.8728 4.1129 19.9137 15.1522 -24.3577 -3.2885 -0.0000 -0.0000 2.2695 14.8874 20.7436 5.3790 -7.1250 0.0000 -0.0000 -13.7230 50.8697 -2.0173 -0.0000 0.0000 0.0000 86.5973 2.3366 24.3725 -15.7617 25.1965 -3.5439 0.0000 -0.0000 -10.0012 -20.3276 12.1062 -4.4426 7.1250 -0.0000 -0.0000 4.7889 -17.1238 3.1778
-2.5395 20.7616 9.2437 -6.2120 16.3576 359.8150 0.0000 0.0000 0.0000 -12.6619 -6.3888 -10.1184 2.7383 10.2589 29.8192 0.8286 -21.8323 -21.0622 0.2465 -3.1949 -8.8217 0.0000 0.0000 0.0000 28.1225 -1.7468 -11.8011 -2.4998 -9.8376 28.4524 -0.9644 2.2652 -17.9357 -0.0876 -1.9090 5.2543 5.0968 1.0011 4.6267 3.3767 1.5829 2.2298 0.5426 0.8172 -0.2545 -6.8296 0.9535 -14.4844 -1.7302 4.9482 39.5349 1.3707 0.9028 16.6618 0.0000 0.0000 0.0000 -88.8487 4.1983 20.3782 15.2596 -24.5065 -3.3329 -0.0000 -0.0000 1.5264 16.4826 20.6753 5.9639 -7.1250 0.0000 -0.0000 -12.1537 51.0623 -1.8383 0.0000 0.0000 0.0000 86.6998 2.0713 24.3732 -15.9801 25.4936 -3.6374 0.0000 -0.0000 -9.6509 -20.4671 11.5727 -4.2820 7.1250 -0.0000 -0.0000 4.6772 -17.6754 3.0465
-2.5589 20.7661 9.2515 -5.8559 17.1442 359.7790 0.0000 0.0000 0.0000 -12.9501 -6.6041 -10.1021 2.7492 10.2775 29.8802 0.7866 -22.0974 -20.9330 0.3182 -3.6259 -10.0264 0.0000 0.0000 0.0000 27.8293 -1.9671 -11.6787 -2.4943 -9.8275 28.4198 -0.9366 1.5286 -17.8393 -0.0328 -1.1693 3.2148 4.7378 0.9928 4.9003 3.3431 1.5763 2.2558 0.7024 0.8101 -0.3903 -6.7867 1.0820 -14.3015 -1.9207 5.1933 39.3799 1.3185 1.0000 16.5375 0.0000 -0.0000 0.0000 -88.9436 4.2476 20.8219 15.3753 -24.6663 -3.3810 -0.0000 -0.0000 0.3456 17.5378 20.6340 6.3546 -7.1250 0.0000 -0.0000 -11.1111 51.1956 -1.7137 0.0000 -0.0000 0.0000 86.6899 1.8768 24.5533 -16.1019 25.6586 -3.6900 0.0000 -0.0000 -9.5325 -20.5011 11.7422 -4.3514 7.1250 -0.0000 -0.0000 4.6578 -17.4933 3.0525
